<svg width="118" height="32" viewBox="0 0 118 32" fill="none" xmlns="http://www.w3.org/2000/svg">
<rect width="28.3978" height="32" fill="#2962FF"/>
<path d="M15.7047 8.1756H9.68142C8.85322 8.1756 8.18313 8.87979 8.18313 9.74048L8.1756 22.2595C8.1756 23.1202 8.84569 23.8244 9.67389 23.8244H18.7164C19.5446 23.8244 20.2222 23.1202 20.2222 22.2595V12.8702L15.7047 8.1756ZM17.2106 20.6946H11.1872V19.1297H17.2106V20.6946ZM17.2106 17.5649H11.1872V16H17.2106V17.5649ZM14.9518 13.6527V9.34926L19.0928 13.6527H14.9518Z" fill="white"/>
<path d="M37.8325 27V12.4545H47.1507V14.6634H40.4674V18.6122H46.5115V20.821H40.4674V27H37.8325ZM49.4376 27V16.0909H52.0086V27H49.4376ZM50.7302 14.5426C50.323 14.5426 49.9726 14.4077 49.6791 14.1378C49.3855 13.8632 49.2387 13.5341 49.2387 13.1506C49.2387 12.7623 49.3855 12.4332 49.6791 12.1634C49.9726 11.8887 50.323 11.7514 50.7302 11.7514C51.1421 11.7514 51.4925 11.8887 51.7813 12.1634C52.0749 12.4332 52.2217 12.7623 52.2217 13.1506C52.2217 13.5341 52.0749 13.8632 51.7813 14.1378C51.4925 14.4077 51.1421 14.5426 50.7302 14.5426ZM57.2235 12.4545V27H54.6524V12.4545H57.2235ZM64.6968 27.2131C63.6031 27.2131 62.6585 26.9858 61.863 26.5312C61.0723 26.072 60.4639 25.4233 60.0377 24.5852C59.6116 23.7424 59.3985 22.7505 59.3985 21.6094C59.3985 20.4872 59.6116 19.5024 60.0377 18.6548C60.4686 17.8026 61.0699 17.1397 61.8417 16.6662C62.6135 16.188 63.5202 15.9489 64.5619 15.9489C65.2342 15.9489 65.8687 16.0578 66.4653 16.2756C67.0666 16.4886 67.5969 16.8201 68.0562 17.2699C68.5202 17.7197 68.8848 18.2926 69.15 18.9886C69.4151 19.6799 69.5477 20.5038 69.5477 21.4602V22.2486H60.6059V20.5156H67.0832C67.0785 20.0232 66.9719 19.5852 66.7636 19.2017C66.5553 18.8134 66.2641 18.508 65.89 18.2855C65.5207 18.063 65.0898 17.9517 64.5974 17.9517C64.0718 17.9517 63.6102 18.0795 63.2125 18.3352C62.8147 18.5862 62.5046 18.9176 62.2821 19.3295C62.0643 19.7367 61.953 20.1842 61.9483 20.6719V22.1847C61.9483 22.8191 62.0643 23.3636 62.2963 23.8182C62.5283 24.268 62.8526 24.6136 63.2693 24.8551C63.6859 25.0919 64.1736 25.2102 64.7323 25.2102C65.1064 25.2102 65.4449 25.1581 65.748 25.054C66.051 24.9451 66.3138 24.7865 66.5363 24.5781C66.7589 24.3698 66.9269 24.1117 67.0406 23.804L69.4412 24.0739C69.2896 24.7083 69.0008 25.2623 68.5747 25.7358C68.1533 26.2045 67.6135 26.5691 66.9554 26.8295C66.2972 27.0852 65.5444 27.2131 64.6968 27.2131Z" fill="#2962FF"/>
<path d="M76.7654 27H71.8364V12.4545H76.8648C78.3089 12.4545 79.5495 12.7457 80.5864 13.3281C81.6281 13.9058 82.4282 14.7367 82.987 15.821C83.5457 16.9053 83.825 18.2027 83.825 19.7131C83.825 21.2282 83.5433 22.5303 82.9799 23.6193C82.4211 24.7083 81.6139 25.544 80.558 26.1264C79.5068 26.7088 78.2426 27 76.7654 27ZM74.4713 24.7202H76.6375C77.6508 24.7202 78.496 24.5355 79.173 24.1662C79.8501 23.7921 80.3591 23.2358 80.7 22.4972C81.0409 21.7538 81.2114 20.8258 81.2114 19.7131C81.2114 18.6004 81.0409 17.6771 80.7 16.9432C80.3591 16.2045 79.8549 15.6529 79.1872 15.2884C78.5244 14.919 77.7005 14.7344 76.7157 14.7344H74.4713V24.7202ZM86.2149 27V16.0909H88.7078V17.9091H88.8215C89.0203 17.2794 89.3613 16.794 89.8442 16.4531C90.3319 16.1075 90.8882 15.9347 91.5132 15.9347C91.6553 15.9347 91.8139 15.9418 91.9891 15.956C92.169 15.9654 92.3182 15.982 92.4365 16.0057V18.3707C92.3276 18.3329 92.1548 18.2997 91.9181 18.2713C91.6861 18.2382 91.4612 18.2216 91.2434 18.2216C90.7746 18.2216 90.3532 18.3234 89.9791 18.527C89.6098 18.7259 89.3186 19.0028 89.1056 19.358C88.8925 19.7131 88.786 20.1226 88.786 20.5866V27H86.2149ZM98.4539 27.2131C97.3886 27.2131 96.4653 26.9787 95.684 26.5099C94.9028 26.0412 94.2967 25.3854 93.8659 24.5426C93.4397 23.6998 93.2267 22.715 93.2267 21.5881C93.2267 20.4612 93.4397 19.474 93.8659 18.6264C94.2967 17.7789 94.9028 17.1207 95.684 16.652C96.4653 16.1832 97.3886 15.9489 98.4539 15.9489C99.5193 15.9489 100.443 16.1832 101.224 16.652C102.005 17.1207 102.609 17.7789 103.035 18.6264C103.466 19.474 103.681 20.4612 103.681 21.5881C103.681 22.715 103.466 23.6998 103.035 24.5426C102.609 25.3854 102.005 26.0412 101.224 26.5099C100.443 26.9787 99.5193 27.2131 98.4539 27.2131ZM98.4681 25.1534C99.0458 25.1534 99.5287 24.9948 99.917 24.6776C100.305 24.3556 100.594 23.9247 100.783 23.3849C100.978 22.8452 101.075 22.2438 101.075 21.581C101.075 20.9134 100.978 20.3097 100.783 19.7699C100.594 19.2254 100.305 18.7921 99.917 18.4702C99.5287 18.1482 99.0458 17.9872 98.4681 17.9872C97.8763 17.9872 97.3839 18.1482 96.9909 18.4702C96.6026 18.7921 96.3114 19.2254 96.1173 19.7699C95.9279 20.3097 95.8332 20.9134 95.8332 21.581C95.8332 22.2438 95.9279 22.8452 96.1173 23.3849C96.3114 23.9247 96.6026 24.3556 96.9909 24.6776C97.3839 24.9948 97.8763 25.1534 98.4681 25.1534ZM105.863 31.0909V16.0909H108.392V17.8949H108.541C108.674 17.6297 108.861 17.348 109.102 17.0497C109.343 16.7467 109.67 16.4886 110.082 16.2756C110.494 16.0578 111.02 15.9489 111.659 15.9489C112.502 15.9489 113.262 16.1643 113.939 16.5952C114.62 17.0213 115.16 17.6534 115.558 18.4915C115.96 19.3248 116.162 20.3475 116.162 21.5597C116.162 22.7576 115.965 23.7756 115.572 24.6136C115.179 25.4517 114.644 26.0909 113.967 26.5312C113.29 26.9716 112.523 27.1918 111.666 27.1918C111.041 27.1918 110.522 27.0876 110.111 26.8793C109.699 26.6709 109.367 26.42 109.116 26.1264C108.87 25.8281 108.678 25.5464 108.541 25.2812H108.434V31.0909H105.863ZM108.385 21.5455C108.385 22.2509 108.484 22.8688 108.683 23.3991C108.887 23.9295 109.178 24.3437 109.557 24.642C109.94 24.9356 110.404 25.0824 110.949 25.0824C111.517 25.0824 111.993 24.9309 112.376 24.6278C112.76 24.3201 113.049 23.901 113.243 23.3707C113.442 22.8357 113.541 22.2273 113.541 21.5455C113.541 20.8684 113.444 20.267 113.25 19.7415C113.056 19.2159 112.767 18.804 112.383 18.5057C112 18.2074 111.522 18.0582 110.949 18.0582C110.399 18.0582 109.933 18.2027 109.549 18.4915C109.166 18.7803 108.875 19.1851 108.676 19.706C108.482 20.2268 108.385 20.84 108.385 21.5455Z" fill="#888888"/>
</svg>
